<?xml version="1.0" encoding="us-ascii" standalone="no"?><svg xmlns="http://www.w3.org/2000/svg" xmlns:xlink="http://www.w3.org/1999/xlink" contentStyleType="text/css" height="709px" preserveAspectRatio="none" style="width:968px;height:709px;background:#FFFFFF;" version="1.1" viewBox="0 0 968 709" width="968px" zoomAndPan="magnify"><defs/><g><text fill="#000000" font-family="sans-serif" font-size="14" font-weight="bold" lengthAdjust="spacing" textLength="460" x="247" y="22.9951">Hardware resource management service (HRM or Domain)</text><!--cluster hrm_service--><g id="cluster_hrm_service"><path d="M8.5,43.2969 L105.5,43.2969 A3.75,3.75 0 0 1 108,45.7969 L115,65.5938 L958.5,65.5938 A2.5,2.5 0 0 1 961,68.0938 L961,681.2969 A2.5,2.5 0 0 1 958.5,683.7969 L8.5,683.7969 A2.5,2.5 0 0 1 6,681.2969 L6,45.7969 A2.5,2.5 0 0 1 8.5,43.2969 " fill="none" style="stroke:#000000;stroke-width:1.5;"/><line style="stroke:#000000;stroke-width:1.5;" x1="6" x2="115" y1="65.5938" y2="65.5938"/><text fill="#000000" font-family="sans-serif" font-size="14" font-weight="bold" lengthAdjust="spacing" textLength="96" x="10" y="58.292">hrm_service</text></g><!--cluster computation--><g id="cluster_computation"><path d="M455.5,196.2969 L554.5,196.2969 A3.75,3.75 0 0 1 557,198.7969 L564,218.5938 L934.5,218.5938 A2.5,2.5 0 0 1 937,221.0938 L937,657.2969 A2.5,2.5 0 0 1 934.5,659.7969 L455.5,659.7969 A2.5,2.5 0 0 1 453,657.2969 L453,198.7969 A2.5,2.5 0 0 1 455.5,196.2969 " fill="none" style="stroke:#000000;stroke-width:1.5;"/><line style="stroke:#000000;stroke-width:1.5;" x1="453" x2="564" y1="218.5938" y2="218.5938"/><text fill="#000000" font-family="sans-serif" font-size="14" font-weight="bold" lengthAdjust="spacing" textLength="98" x="457" y="211.292">computation</text></g><!--cluster events--><g id="cluster_events"><path d="M779.5,242.7969 L834.5,242.7969 A3.75,3.75 0 0 1 837,245.2969 L844,265.0938 L910.5,265.0938 A2.5,2.5 0 0 1 913,267.5938 L913,499.7969 A2.5,2.5 0 0 1 910.5,502.2969 L779.5,502.2969 A2.5,2.5 0 0 1 777,499.7969 L777,245.2969 A2.5,2.5 0 0 1 779.5,242.7969 " fill="none" style="stroke:#000000;stroke-width:1.5;"/><line style="stroke:#000000;stroke-width:1.5;" x1="777" x2="844" y1="265.0938" y2="265.0938"/><text fill="#000000" font-family="sans-serif" font-size="14" font-weight="bold" lengthAdjust="spacing" textLength="54" x="781" y="257.792">events</text></g><!--cluster execution--><g id="cluster_execution"><path d="M479.5,239.2969 L558.5,239.2969 A3.75,3.75 0 0 1 561,241.7969 L568,261.5938 L750.5,261.5938 A2.5,2.5 0 0 1 753,264.0938 L753,633.2969 A2.5,2.5 0 0 1 750.5,635.7969 L479.5,635.7969 A2.5,2.5 0 0 1 477,633.2969 L477,241.7969 A2.5,2.5 0 0 1 479.5,239.2969 " fill="none" style="stroke:#000000;stroke-width:1.5;"/><line style="stroke:#000000;stroke-width:1.5;" x1="477" x2="568" y1="261.5938" y2="261.5938"/><text fill="#000000" font-family="sans-serif" font-size="14" font-weight="bold" lengthAdjust="spacing" textLength="78" x="481" y="254.292">execution</text></g><!--cluster institutional--><g id="cluster_institutional"><path d="M40.5,215.7969 L133.5,215.7969 A3.75,3.75 0 0 1 136,218.2969 L143,238.0938 L418.5,238.0938 A2.5,2.5 0 0 1 421,240.5938 L421,649.2969 A2.5,2.5 0 0 1 418.5,651.7969 L40.5,651.7969 A2.5,2.5 0 0 1 38,649.2969 L38,218.2969 A2.5,2.5 0 0 1 40.5,215.7969 " fill="none" style="stroke:#000000;stroke-width:1.5;"/><line style="stroke:#000000;stroke-width:1.5;" x1="38" x2="143" y1="238.0938" y2="238.0938"/><text fill="#000000" font-family="sans-serif" font-size="14" font-weight="bold" lengthAdjust="spacing" textLength="92" x="42" y="230.792">institutional</text></g><g id="elem_snote"><path d="M22,78.2969 L22,148.8281 L360,148.8281 L360,88.2969 L350,78.2969 L22,78.2969 " fill="#FEFFDD" style="stroke:#181818;stroke-width:0.5;"/><path d="M350,78.2969 L350,88.2969 L360,88.2969 L350,78.2969 " fill="#FEFFDD" style="stroke:#181818;stroke-width:1.0;"/><text fill="#000000" font-family="sans-serif" font-size="13" lengthAdjust="spacing" textLength="284" x="28" y="95.3638">This version of the project will not implement</text><text fill="#000000" font-family="sans-serif" font-size="13" lengthAdjust="spacing" textLength="279" x="28" y="110.4966">Access Control on the resources. It wouldn't</text><text fill="#000000" font-family="sans-serif" font-size="13" lengthAdjust="spacing" textLength="317" x="28" y="125.6294">interfere on the domain and wouldn't be assertive</text><text fill="#000000" font-family="sans-serif" font-size="13" lengthAdjust="spacing" textLength="124" x="28" y="140.7622">as it is just an MVP.</text></g><!--class Command--><g id="elem_Command"><rect codeLine="13" fill="#F1F1F1" height="48" id="Command" rx="2.5" ry="2.5" style="stroke:#181818;stroke-width:0.5;" width="103" x="793.5" y="277.7969"/><ellipse cx="808.5" cy="293.7969" fill="#ADD1B2" rx="11" ry="11" style="stroke:#181818;stroke-width:1.0;"/><path d="M811.4688,299.4375 Q810.8906,299.7344 810.25,299.875 Q809.6094,300.0313 808.9063,300.0313 Q806.4063,300.0313 805.0781,298.3906 Q803.7656,296.7344 803.7656,293.6094 Q803.7656,290.4844 805.0781,288.8281 Q806.4063,287.1719 808.9063,287.1719 Q809.6094,287.1719 810.25,287.3281 Q810.9063,287.4844 811.4688,287.7813 L811.4688,290.5 Q810.8438,289.9219 810.25,289.6563 Q809.6563,289.375 809.0313,289.375 Q807.6875,289.375 807,290.4531 Q806.3125,291.5156 806.3125,293.6094 Q806.3125,295.7031 807,296.7813 Q807.6875,297.8438 809.0313,297.8438 Q809.6563,297.8438 810.25,297.5781 Q810.8438,297.2969 811.4688,296.7188 L811.4688,299.4375 Z " fill="#000000"/><text fill="#000000" font-family="sans-serif" font-size="14" lengthAdjust="spacing" textLength="71" x="822.5" y="298.6436">Command</text><line style="stroke:#181818;stroke-width:0.5;" x1="794.5" x2="895.5" y1="309.7969" y2="309.7969"/><line style="stroke:#181818;stroke-width:0.5;" x1="794.5" x2="895.5" y1="317.7969" y2="317.7969"/></g><!--class Result--><g id="elem_Result"><rect codeLine="14" fill="#F1F1F1" height="48" id="Result" rx="2.5" ry="2.5" style="stroke:#181818;stroke-width:0.5;" width="76" x="805" y="438.2969"/><ellipse cx="820" cy="454.2969" fill="#ADD1B2" rx="11" ry="11" style="stroke:#181818;stroke-width:1.0;"/><path d="M822.9688,459.9375 Q822.3906,460.2344 821.75,460.375 Q821.1094,460.5313 820.4063,460.5313 Q817.9063,460.5313 816.5781,458.8906 Q815.2656,457.2344 815.2656,454.1094 Q815.2656,450.9844 816.5781,449.3281 Q817.9063,447.6719 820.4063,447.6719 Q821.1094,447.6719 821.75,447.8281 Q822.4063,447.9844 822.9688,448.2813 L822.9688,451 Q822.3438,450.4219 821.75,450.1563 Q821.1563,449.875 820.5313,449.875 Q819.1875,449.875 818.5,450.9531 Q817.8125,452.0156 817.8125,454.1094 Q817.8125,456.2031 818.5,457.2813 Q819.1875,458.3438 820.5313,458.3438 Q821.1563,458.3438 821.75,458.0781 Q822.3438,457.7969 822.9688,457.2188 L822.9688,459.9375 Z " fill="#000000"/><text fill="#000000" font-family="sans-serif" font-size="14" lengthAdjust="spacing" textLength="44" x="834" y="459.1436">Result</text><line style="stroke:#181818;stroke-width:0.5;" x1="806" x2="880" y1="470.2969" y2="470.2969"/><line style="stroke:#181818;stroke-width:0.5;" x1="806" x2="880" y1="478.2969" y2="478.2969"/></g><!--class Program--><g id="elem_Program"><rect codeLine="18" fill="#F1F1F1" height="48" id="Program" rx="2.5" ry="2.5" style="stroke:#181818;stroke-width:0.5;" width="90" x="573" y="571.7969"/><ellipse cx="588" cy="587.7969" fill="#ADD1B2" rx="11" ry="11" style="stroke:#181818;stroke-width:1.0;"/><path d="M592.1094,593.7969 L584.3906,593.7969 L584.3906,581.4063 L592.1094,581.4063 L592.1094,583.5625 L586.8438,583.5625 L586.8438,586.2344 L591.6094,586.2344 L591.6094,588.3906 L586.8438,588.3906 L586.8438,591.6406 L592.1094,591.6406 L592.1094,593.7969 Z " fill="#000000"/><text fill="#000000" font-family="sans-serif" font-size="14" lengthAdjust="spacing" textLength="58" x="602" y="592.6436">Program</text><line style="stroke:#181818;stroke-width:0.5;" x1="574" x2="662" y1="603.7969" y2="603.7969"/><line style="stroke:#181818;stroke-width:0.5;" x1="574" x2="662" y1="611.7969" y2="611.7969"/></g><g id="elem_n1"><path d="M493,274.2969 L493,329.6953 A0,0 0 0 0 493,329.6953 L611.5,329.6953 L617.41,430.0469 L619.5,329.6953 L737,329.6953 A0,0 0 0 0 737,329.6953 L737,284.2969 L727,274.2969 L493,274.2969 A0,0 0 0 0 493,274.2969 " fill="#FEFFDD" style="stroke:#181818;stroke-width:0.5;"/><path d="M727,274.2969 L727,284.2969 L737,284.2969 L727,274.2969 " fill="#FEFFDD" style="stroke:#181818;stroke-width:0.5;"/><text fill="#000000" font-family="sans-serif" font-size="13" lengthAdjust="spacing" textLength="214" x="499" y="291.3638">In case of connectivity issues with</text><text fill="#000000" font-family="sans-serif" font-size="13" lengthAdjust="spacing" textLength="223" x="499" y="306.4966">resources or instances, the service</text><text fill="#000000" font-family="sans-serif" font-size="13" lengthAdjust="spacing" textLength="190" x="499" y="321.6294">needs to turn off the use of it.</text></g><!--class Instance--><g id="elem_Instance"><rect codeLine="24" fill="#F1F1F1" height="64.2969" id="Instance" rx="2.5" ry="2.5" style="stroke:#181818;stroke-width:0.5;" width="186" x="525" y="430.2969"/><ellipse cx="584.25" cy="446.2969" fill="#ADD1B2" rx="11" ry="11" style="stroke:#181818;stroke-width:1.0;"/><path d="M588.3594,452.2969 L580.6406,452.2969 L580.6406,439.9063 L588.3594,439.9063 L588.3594,442.0625 L583.0938,442.0625 L583.0938,444.7344 L587.8594,444.7344 L587.8594,446.8906 L583.0938,446.8906 L583.0938,450.1406 L588.3594,450.1406 L588.3594,452.2969 Z " fill="#000000"/><text fill="#000000" font-family="sans-serif" font-size="14" lengthAdjust="spacing" textLength="59" x="604.75" y="451.1436">Instance</text><line style="stroke:#181818;stroke-width:0.5;" x1="526" x2="710" y1="462.2969" y2="462.2969"/><rect fill="none" height="6" style="stroke:#C82930;stroke-width:1.0;" width="6" x="533" y="472.9453"/><text fill="#000000" font-family="sans-serif" font-size="14" lengthAdjust="spacing" textLength="160" x="545" y="479.292">status: InstanceStatus;</text><line style="stroke:#181818;stroke-width:0.5;" x1="526" x2="710" y1="486.5938" y2="486.5938"/></g><g id="elem_n2"><path d="M115,258.7969 L115,344.4609 A0,0 0 0 0 115,344.4609 L262.35,344.4609 L285.27,421.7669 L270.35,344.4609 L397,344.4609 A0,0 0 0 0 397,344.4609 L397,268.7969 L387,258.7969 L115,258.7969 A0,0 0 0 0 115,258.7969 " fill="#FEFFDD" style="stroke:#181818;stroke-width:0.5;"/><path d="M387,258.7969 L387,268.7969 L397,268.7969 L387,258.7969 " fill="#FEFFDD" style="stroke:#181818;stroke-width:0.5;"/><text fill="#000000" font-family="sans-serif" font-size="13" lengthAdjust="spacing" textLength="184" x="121" y="275.8638">It's a computer that contains</text><text fill="#000000" font-family="sans-serif" font-size="13" lengthAdjust="spacing" textLength="235" x="121" y="290.9966">a client server and specific programs</text><text fill="#000000" font-family="sans-serif" font-size="13" lengthAdjust="spacing" textLength="237" x="121" y="306.1294">that allows users to do specific tasks.</text><text fill="#000000" font-family="sans-serif" font-size="13" lengthAdjust="spacing" textLength="261" x="121" y="321.2622">Each resource is unique to the institution</text><text fill="#000000" font-family="sans-serif" font-size="13" lengthAdjust="spacing" textLength="94" x="121" y="336.395">that is using it.</text></g><!--class Resource--><g id="elem_Resource"><rect codeLine="39" fill="#F1F1F1" height="80.5938" id="Resource" rx="2.5" ry="2.5" style="stroke:#181818;stroke-width:0.5;" width="204" x="193" y="421.7969"/><ellipse cx="257.25" cy="437.7969" fill="#ADD1B2" rx="11" ry="11" style="stroke:#181818;stroke-width:1.0;"/><path d="M261.3594,443.7969 L253.6406,443.7969 L253.6406,431.4063 L261.3594,431.4063 L261.3594,433.5625 L256.0938,433.5625 L256.0938,436.2344 L260.8594,436.2344 L260.8594,438.3906 L256.0938,438.3906 L256.0938,441.6406 L261.3594,441.6406 L261.3594,443.7969 Z " fill="#000000"/><text fill="#000000" font-family="sans-serif" font-size="14" lengthAdjust="spacing" textLength="67" x="277.75" y="442.6436">Resource</text><line style="stroke:#181818;stroke-width:0.5;" x1="194" x2="396" y1="453.7969" y2="453.7969"/><rect fill="none" height="6" style="stroke:#C82930;stroke-width:1.0;" width="6" x="201" y="464.4453"/><text fill="#000000" font-family="sans-serif" font-size="14" lengthAdjust="spacing" textLength="163" x="213" y="470.792">status: ResourceStatus</text><rect fill="none" height="6" style="stroke:#C82930;stroke-width:1.0;" width="6" x="201" y="480.7422"/><text fill="#000000" font-family="sans-serif" font-size="14" lengthAdjust="spacing" textLength="178" x="213" y="487.0889">memoryCapacity: Decimal</text><line style="stroke:#181818;stroke-width:0.5;" x1="194" x2="396" y1="494.3906" y2="494.3906"/></g><!--class Institution--><g id="elem_Institution"><rect codeLine="43" fill="#F1F1F1" height="64.2969" id="Institution" rx="2.5" ry="2.5" style="stroke:#181818;stroke-width:0.5;" width="114" x="154" y="563.7969"/><ellipse cx="175.3" cy="579.7969" fill="#ADD1B2" rx="11" ry="11" style="stroke:#181818;stroke-width:1.0;"/><path d="M179.4094,585.7969 L171.6906,585.7969 L171.6906,573.4063 L179.4094,573.4063 L179.4094,575.5625 L174.1438,575.5625 L174.1438,578.2344 L178.9094,578.2344 L178.9094,580.3906 L174.1438,580.3906 L174.1438,583.6406 L179.4094,583.6406 L179.4094,585.7969 Z " fill="#000000"/><text fill="#000000" font-family="sans-serif" font-size="14" lengthAdjust="spacing" textLength="68" x="190.7" y="584.6436">Institution</text><line style="stroke:#181818;stroke-width:0.5;" x1="155" x2="267" y1="595.7969" y2="595.7969"/><rect fill="none" height="6" style="stroke:#C82930;stroke-width:1.0;" width="6" x="162" y="606.4453"/><text fill="#000000" font-family="sans-serif" font-size="14" lengthAdjust="spacing" textLength="88" x="174" y="612.792">name: String</text><line style="stroke:#181818;stroke-width:0.5;" x1="155" x2="267" y1="620.0938" y2="620.0938"/></g><!--class Student--><g id="elem_Student"><rect codeLine="46" fill="#F1F1F1" height="48" id="Student" rx="2.5" ry="2.5" style="stroke:#181818;stroke-width:0.5;" width="87" x="70.5" y="438.2969"/><ellipse cx="85.5" cy="454.2969" fill="#ADD1B2" rx="11" ry="11" style="stroke:#181818;stroke-width:1.0;"/><path d="M89.6094,460.2969 L81.8906,460.2969 L81.8906,447.9063 L89.6094,447.9063 L89.6094,450.0625 L84.3438,450.0625 L84.3438,452.7344 L89.1094,452.7344 L89.1094,454.8906 L84.3438,454.8906 L84.3438,458.1406 L89.6094,458.1406 L89.6094,460.2969 Z " fill="#000000"/><text fill="#000000" font-family="sans-serif" font-size="14" lengthAdjust="spacing" textLength="55" x="99.5" y="459.1436">Student</text><line style="stroke:#181818;stroke-width:0.5;" x1="71.5" x2="156.5" y1="470.2969" y2="470.2969"/><line style="stroke:#181818;stroke-width:0.5;" x1="71.5" x2="156.5" y1="478.2969" y2="478.2969"/></g><!--link Command to Result--><g id="link_Command_Result"><path codeLine="15" d="M844.71,325.8469 C844.38,351.9069 843.84,394.6669 843.46,425.1769 " fill="none" id="Command-to-Result" style="stroke:#181818;stroke-width:1.0;"/><polygon fill="none" points="843.29,438.2169,847.3623,432.2657,843.4352,426.2178,839.3629,432.1689,843.29,438.2169" style="stroke:#181818;stroke-width:1.0;"/></g><!--reverse link Command to Instance--><g id="link_Command_Instance"><path codeLine="28" d="M807.75,328.8069 C768.03,356.5369 705.16,400.4369 662.78,430.0269 " fill="none" id="Command-backto-Instance" style="stroke:#181818;stroke-width:1.0;stroke-dasharray:7.0,7.0;"/><polygon fill="#181818" points="811.99,325.8469,802.3191,327.7107,807.8878,328.7055,806.893,334.2742,811.99,325.8469" style="stroke:#181818;stroke-width:1.0;"/><text fill="#000000" font-family="sans-serif" font-size="13" lengthAdjust="spacing" textLength="46" x="739" y="387.8638">receive</text></g><!--reverse link Result to Instance--><g id="link_Result_Instance"><path codeLine="29" d="M799.67,462.2969 C774.52,462.2969 741.84,462.2969 711.14,462.2969 " fill="none" id="Result-backto-Instance" style="stroke:#181818;stroke-width:1.0;stroke-dasharray:7.0,7.0;"/><polygon fill="#181818" points="804.92,462.2969,795.92,458.2969,799.92,462.2969,795.92,466.2969,804.92,462.2969" style="stroke:#181818;stroke-width:1.0;"/><text fill="#000000" font-family="sans-serif" font-size="13" lengthAdjust="spacing" textLength="52" x="732" y="455.3638">produce</text></g><!--reverse link Resource to Instance--><g id="link_Resource_Instance"><path codeLine="50" d="M410.66,462.2969 C448.72,462.2969 486.79,462.2969 524.85,462.2969 " fill="none" id="Resource-backto-Instance" style="stroke:#181818;stroke-width:1.0;"/><polygon fill="#181818" points="397.2,462.2969,403.2,466.2969,409.2,462.2969,403.2,458.2969,397.2,462.2969" style="stroke:#181818;stroke-width:1.0;"/><text fill="#000000" font-family="sans-serif" font-size="13" lengthAdjust="spacing" textLength="8" x="404.9991" y="458.8328">1</text><text fill="#000000" font-family="sans-serif" font-size="13" lengthAdjust="spacing" textLength="7" x="510.1482" y="458.7596">*</text></g><!--link Instance to Program--><g id="link_Instance_Program"><path codeLine="51" d="M618,494.4569 C618,513.7169 618,538.4969 618,558.6169 " fill="none" id="Instance-to-Program" style="stroke:#181818;stroke-width:1.0;"/><polygon fill="#181818" points="618,571.6769,622,565.6769,618,559.6769,614,565.6769,618,571.6769" style="stroke:#181818;stroke-width:1.0;"/><text fill="#000000" font-family="sans-serif" font-size="13" lengthAdjust="spacing" textLength="7" x="610.2781" y="514.6867">*</text><text fill="#000000" font-family="sans-serif" font-size="13" lengthAdjust="spacing" textLength="8" x="608.975" y="560.6582">1</text></g><!--link Student to Institution--><g id="link_Student_Institution"><path codeLine="53" d="M131.12,486.5069 C144.61,504.7969 163.78,530.7869 179.96,552.7169 " fill="none" id="Student-to-Institution" style="stroke:#181818;stroke-width:1.0;"/><polygon fill="none" points="187.87,563.4369,187.5206,556.2342,180.7377,553.7865,181.087,560.9891,187.87,563.4369" style="stroke:#181818;stroke-width:1.0;"/><text fill="#000000" font-family="sans-serif" font-size="13" lengthAdjust="spacing" textLength="7" x="127.4399" y="506.3193">*</text><text fill="#000000" font-family="sans-serif" font-size="13" lengthAdjust="spacing" textLength="8" x="174.5288" y="552.6402">1</text></g><!--link Resource to Institution--><g id="link_Resource_Institution"><path codeLine="54" d="M269.57,503.1069 C259.62,518.6769 248.2,536.5669 238.1,552.3769 " fill="none" id="Resource-to-Institution" style="stroke:#181818;stroke-width:1.0;"/><polygon fill="#181818" points="231.01,563.4669,237.611,560.5641,237.4704,553.3544,230.8694,556.2571,231.01,563.4669" style="stroke:#181818;stroke-width:1.0;"/><text fill="#000000" font-family="sans-serif" font-size="13" lengthAdjust="spacing" textLength="7" x="258.3209" y="522.3089">*</text><text fill="#000000" font-family="sans-serif" font-size="13" lengthAdjust="spacing" textLength="8" x="226.162" y="552.6761">1</text></g><!--link snote to institutional--><text fill="#888888" font-family="sans-serif" font-size="10" lengthAdjust="spacing" textLength="161" x="396.5" y="699.0791">drawn with PlantUML v. 1.2023.6</text><!--SRC=[TLJRQXin47tVhnWC9HUwXkJHXK192Z4q49AsBoKKTNUSLQALNCt8RWZ-zuwq5rksgwTTpHdDcJb7Oiq6uLRvUgqyWaTomLS8hRBg6Lkq38H-fMNhzFRX3fo76zSgRS-AOgcgLm51uzjV0-Yz05dMCO8YeFYHThurcc25dhIpu1R03SBIknUi6DRQc9W2kbsQL3EbVAug989hPzax0v8NamQ6D8MvfBfWQdlI9MZBw1SeRVJOEZ45PUiH2ByZCM7BUjKn4vfQIXEy16B1mjsF-scAeEIb1jBVq6tbscLWnR6HhjlTAAw4Fkq4uggCIesqCjNwIEG1AHZE0ZqOojBjXpU7HVzY5VO8TGsmvZUuz-xPgnRUDrbq4CbUPDjnpIrKYZ0ALJbhHIIzYYTfee0aWd5pa3CA4psYBR6oylCn2T6xuo378jO4x823ZxReV16wofgdUztqSXnfSTxNsnj0N2L8Y0FDHj1Z-l-K8JT7nZiUEZMuuEdLACfCcgrmCD1HQAUP8CNaTUXRtsH6YZFId7HJPeVugCjbnd3E9mIgjnzwcPJYg0wBnIb32iZeuUOACbAc9LPweQl89veXpqXdAMFSckBqVTAaTjiiLlHAkHnVLDLitmkvFy7gFm6JcatMtM6fY2PjdpED3_JjjNqOQkJQRdKT09skUw0MM-VVhfLCNGwRmOrqr2fpHEuTA_N43ofQrU8C7jaBz_-VyCYXZkFlxzkcs1J5sCJaOWBdfIzXSZuPRLCCLxIBXhreCPmOT-EB464xF8jTpjaHGzcYI4ynb3yRNSjHJ-LLxh_2NcR1CT5UPFjRJWldeWrhhzOslGXmRvJbxtTVOJM53_rRVths3m00]--></g></svg>