<?xml version="1.0" encoding="UTF-8" standalone="no"?><svg xmlns="http://www.w3.org/2000/svg" xmlns:xlink="http://www.w3.org/1999/xlink" contentScriptType="application/ecmascript" contentStyleType="text/css" height="725px" preserveAspectRatio="none" style="width:955px;height:725px;" version="1.1" viewBox="0 0 955 725" width="955px" zoomAndPan="magnify"><defs><filter height="300%" id="f1gptkzl7geh03" width="300%" x="-1" y="-1"><feGaussianBlur result="blurOut" stdDeviation="2.0"/><feColorMatrix in="blurOut" result="blurOut2" type="matrix" values="0 0 0 0 0 0 0 0 0 0 0 0 0 0 0 0 0 0 .4 0"/><feOffset dx="4.0" dy="4.0" in="blurOut2" result="blurOut3"/><feBlend in="SourceGraphic" in2="blurOut3" mode="normal"/></filter></defs><g><text fill="#000000" font-family="sans-serif" font-size="18" lengthAdjust="spacingAndGlyphs" textLength="524" x="221.5" y="16.708">Hardware resource management service (HRM or Domain)</text><!--MD5=[63e467e1762396140c7bdb34f2024ec6]
cluster hrm_service--><polygon fill="#FFFFFF" filter="url(#f1gptkzl7geh03)" points="22,44.9531,124,44.9531,131,67.25,933,67.25,933,676.9531,22,676.9531,22,44.9531" style="stroke: #000000; stroke-width: 1.5;"/><line style="stroke: #000000; stroke-width: 1.5;" x1="22" x2="131" y1="67.25" y2="67.25"/><text fill="#000000" font-family="sans-serif" font-size="14" font-weight="bold" lengthAdjust="spacingAndGlyphs" textLength="96" x="26" y="59.9482">hrm_service</text><!--MD5=[76621e9bc52a4f47e05d8ef8fd666ce1]
cluster computation--><polygon fill="#FFFFFF" filter="url(#f1gptkzl7geh03)" points="435,197.9531,539,197.9531,546,220.25,909,220.25,909,652.9531,435,652.9531,435,197.9531" style="stroke: #000000; stroke-width: 1.5;"/><line style="stroke: #000000; stroke-width: 1.5;" x1="435" x2="546" y1="220.25" y2="220.25"/><text fill="#000000" font-family="sans-serif" font-size="14" font-weight="bold" lengthAdjust="spacingAndGlyphs" textLength="98" x="439" y="212.9482">computation</text><!--MD5=[8d74b40516bd265adb19f202ab81f40d]
cluster events--><polygon fill="#FFFFFF" filter="url(#f1gptkzl7geh03)" points="759,244.4531,819,244.4531,826,266.75,885,266.75,885,500.4531,759,500.4531,759,244.4531" style="stroke: #000000; stroke-width: 1.5;"/><line style="stroke: #000000; stroke-width: 1.5;" x1="759" x2="826" y1="266.75" y2="266.75"/><text fill="#000000" font-family="sans-serif" font-size="14" font-weight="bold" lengthAdjust="spacingAndGlyphs" textLength="54" x="763" y="259.4482">events</text><!--MD5=[e4782fcabd24389ff3308455bce13744]
cluster execution--><polygon fill="#FFFFFF" filter="url(#f1gptkzl7geh03)" points="459,240.9531,543,240.9531,550,263.25,735,263.25,735,628.9531,459,628.9531,459,240.9531" style="stroke: #000000; stroke-width: 1.5;"/><line style="stroke: #000000; stroke-width: 1.5;" x1="459" x2="550" y1="263.25" y2="263.25"/><text fill="#000000" font-family="sans-serif" font-size="14" font-weight="bold" lengthAdjust="spacingAndGlyphs" textLength="78" x="463" y="255.9482">execution</text><!--MD5=[af354eb2e60711b744ee262d0d7f21c7]
cluster institutional--><polygon fill="#FFFFFF" filter="url(#f1gptkzl7geh03)" points="54,217.4531,152,217.4531,159,239.75,403,239.75,403,643.4531,54,643.4531,54,217.4531" style="stroke: #000000; stroke-width: 1.5;"/><line style="stroke: #000000; stroke-width: 1.5;" x1="54" x2="159" y1="239.75" y2="239.75"/><text fill="#000000" font-family="sans-serif" font-size="14" font-weight="bold" lengthAdjust="spacingAndGlyphs" textLength="92" x="58" y="232.4482">institutional</text><path d="M38,79.9531 L38,150.4844 L376,150.4844 L376,89.9531 L366,79.9531 L38,79.9531 " fill="#FBFB77" filter="url(#f1gptkzl7geh03)" style="stroke: #A80036; stroke-width: 1.0;"/><path d="M366,79.9531 L366,89.9531 L376,89.9531 L366,79.9531 " fill="#FBFB77" style="stroke: #A80036; stroke-width: 1.0;"/><text fill="#000000" font-family="sans-serif" font-size="13" lengthAdjust="spacingAndGlyphs" textLength="284" x="44" y="97.02">This version of the project will not implement</text><text fill="#000000" font-family="sans-serif" font-size="13" lengthAdjust="spacingAndGlyphs" textLength="279" x="44" y="112.1528">Access Control on the resources. It wouldn't</text><text fill="#000000" font-family="sans-serif" font-size="13" lengthAdjust="spacingAndGlyphs" textLength="317" x="44" y="127.2856">interfere on the domain and wouldn't be assertive</text><text fill="#000000" font-family="sans-serif" font-size="13" lengthAdjust="spacingAndGlyphs" textLength="124" x="44" y="142.4185">as it is just an MVP.</text><!--MD5=[521817ab83e81da341a3f4b5e91bae41]
class Command--><rect fill="#FEFECE" filter="url(#f1gptkzl7geh03)" height="48" id="Command" style="stroke: #A80036; stroke-width: 1.5;" width="94" x="775" y="279.4531"/><ellipse cx="790" cy="295.4531" fill="#ADD1B2" rx="11" ry="11" style="stroke: #A80036; stroke-width: 1.0;"/><path d="M792.9688,301.0938 Q792.3906,301.3906 791.75,301.5313 Q791.1094,301.6875 790.4063,301.6875 Q787.9063,301.6875 786.5781,300.0469 Q785.2656,298.3906 785.2656,295.2656 Q785.2656,292.1406 786.5781,290.4844 Q787.9063,288.8281 790.4063,288.8281 Q791.1094,288.8281 791.75,288.9844 Q792.4063,289.1406 792.9688,289.4375 L792.9688,292.1563 Q792.3438,291.5781 791.75,291.3125 Q791.1563,291.0313 790.5313,291.0313 Q789.1875,291.0313 788.5,292.1094 Q787.8125,293.1719 787.8125,295.2656 Q787.8125,297.3594 788.5,298.4375 Q789.1875,299.5 790.5313,299.5 Q791.1563,299.5 791.75,299.2344 Q792.3438,298.9531 792.9688,298.375 L792.9688,301.0938 Z "/><text fill="#000000" font-family="sans-serif" font-size="12" lengthAdjust="spacingAndGlyphs" textLength="62" x="804" y="299.6074">Command</text><line style="stroke: #A80036; stroke-width: 1.5;" x1="776" x2="868" y1="311.4531" y2="311.4531"/><line style="stroke: #A80036; stroke-width: 1.5;" x1="776" x2="868" y1="319.4531" y2="319.4531"/><!--MD5=[2741598bdf59a7d7e0d5c97658fd3022]
class Result--><rect fill="#FEFECE" filter="url(#f1gptkzl7geh03)" height="48" id="Result" style="stroke: #A80036; stroke-width: 1.5;" width="71" x="780.5" y="436.4531"/><ellipse cx="795.5" cy="452.4531" fill="#ADD1B2" rx="11" ry="11" style="stroke: #A80036; stroke-width: 1.0;"/><path d="M798.4688,458.0938 Q797.8906,458.3906 797.25,458.5313 Q796.6094,458.6875 795.9063,458.6875 Q793.4063,458.6875 792.0781,457.0469 Q790.7656,455.3906 790.7656,452.2656 Q790.7656,449.1406 792.0781,447.4844 Q793.4063,445.8281 795.9063,445.8281 Q796.6094,445.8281 797.25,445.9844 Q797.9063,446.1406 798.4688,446.4375 L798.4688,449.1563 Q797.8438,448.5781 797.25,448.3125 Q796.6563,448.0313 796.0313,448.0313 Q794.6875,448.0313 794,449.1094 Q793.3125,450.1719 793.3125,452.2656 Q793.3125,454.3594 794,455.4375 Q794.6875,456.5 796.0313,456.5 Q796.6563,456.5 797.25,456.2344 Q797.8438,455.9531 798.4688,455.375 L798.4688,458.0938 Z "/><text fill="#000000" font-family="sans-serif" font-size="12" lengthAdjust="spacingAndGlyphs" textLength="39" x="809.5" y="456.6074">Result</text><line style="stroke: #A80036; stroke-width: 1.5;" x1="781.5" x2="850.5" y1="468.4531" y2="468.4531"/><line style="stroke: #A80036; stroke-width: 1.5;" x1="781.5" x2="850.5" y1="476.4531" y2="476.4531"/><!--MD5=[175f95e045c1a44aed0b30df3abe0e5c]
class Program--><rect fill="#FEFECE" filter="url(#f1gptkzl7geh03)" height="48" id="Program" style="stroke: #A80036; stroke-width: 1.5;" width="85" x="565.5" y="564.9531"/><ellipse cx="580.5" cy="580.9531" fill="#ADD1B2" rx="11" ry="11" style="stroke: #A80036; stroke-width: 1.0;"/><path d="M584.6094,586.9531 L576.8906,586.9531 L576.8906,574.5625 L584.6094,574.5625 L584.6094,576.7188 L579.3438,576.7188 L579.3438,579.3906 L584.1094,579.3906 L584.1094,581.5469 L579.3438,581.5469 L579.3438,584.7969 L584.6094,584.7969 L584.6094,586.9531 Z "/><text fill="#000000" font-family="sans-serif" font-size="12" lengthAdjust="spacingAndGlyphs" textLength="53" x="594.5" y="585.1074">Program</text><line style="stroke: #A80036; stroke-width: 1.5;" x1="566.5" x2="649.5" y1="596.9531" y2="596.9531"/><line style="stroke: #A80036; stroke-width: 1.5;" x1="566.5" x2="649.5" y1="604.9531" y2="604.9531"/><path d="M475,275.9531 L475,331.3516 A0,0 0 0 0 475,331.3516 L594.89,331.3516 L605.89,429.7231 L602.89,331.3516 L719,331.3516 A0,0 0 0 0 719,331.3516 L719,285.9531 L709,275.9531 L475,275.9531 A0,0 0 0 0 475,275.9531 " fill="#FBFB77" filter="url(#f1gptkzl7geh03)" style="stroke: #A80036; stroke-width: 1.0;"/><path d="M709,275.9531 L709,285.9531 L719,285.9531 L709,275.9531 " fill="#FBFB77" style="stroke: #A80036; stroke-width: 1.0;"/><text fill="#000000" font-family="sans-serif" font-size="13" lengthAdjust="spacingAndGlyphs" textLength="214" x="481" y="293.02">In case of connectivity issues with</text><text fill="#000000" font-family="sans-serif" font-size="13" lengthAdjust="spacingAndGlyphs" textLength="223" x="481" y="308.1528">resources or instances, the service</text><text fill="#000000" font-family="sans-serif" font-size="13" lengthAdjust="spacingAndGlyphs" textLength="190" x="481" y="323.2856">needs to turn off the use of it.</text><!--MD5=[dbfd7680984eb54d794e10dee7f3936a]
class Instance--><rect fill="#FEFECE" filter="url(#f1gptkzl7geh03)" height="60.8047" id="Instance" style="stroke: #A80036; stroke-width: 1.5;" width="159" x="528.5" y="429.9531"/><ellipse cx="576.75" cy="445.9531" fill="#ADD1B2" rx="11" ry="11" style="stroke: #A80036; stroke-width: 1.0;"/><path d="M580.8594,451.9531 L573.1406,451.9531 L573.1406,439.5625 L580.8594,439.5625 L580.8594,441.7188 L575.5938,441.7188 L575.5938,444.3906 L580.3594,444.3906 L580.3594,446.5469 L575.5938,446.5469 L575.5938,449.7969 L580.8594,449.7969 L580.8594,451.9531 Z "/><text fill="#000000" font-family="sans-serif" font-size="12" lengthAdjust="spacingAndGlyphs" textLength="54" x="597.25" y="450.1074">Instance</text><line style="stroke: #A80036; stroke-width: 1.5;" x1="529.5" x2="686.5" y1="461.9531" y2="461.9531"/><rect fill="none" height="6" style="stroke: #C82930; stroke-width: 1.0;" width="6" x="536.5" y="469.9531"/><text fill="#000000" font-family="sans-serif" font-size="11" lengthAdjust="spacingAndGlyphs" textLength="133" x="548.5" y="476.1636">status: InstanceStatus;</text><line style="stroke: #A80036; stroke-width: 1.5;" x1="529.5" x2="686.5" y1="482.7578" y2="482.7578"/><path d="M97,260.4531 L97,346.1172 A0,0 0 0 0 97,346.1172 L248.76,346.1172 L279.37,423.2031 L256.76,346.1172 L379,346.1172 A0,0 0 0 0 379,346.1172 L379,270.4531 L369,260.4531 L97,260.4531 A0,0 0 0 0 97,260.4531 " fill="#FBFB77" filter="url(#f1gptkzl7geh03)" style="stroke: #A80036; stroke-width: 1.0;"/><path d="M369,260.4531 L369,270.4531 L379,270.4531 L369,260.4531 " fill="#FBFB77" style="stroke: #A80036; stroke-width: 1.0;"/><text fill="#000000" font-family="sans-serif" font-size="13" lengthAdjust="spacingAndGlyphs" textLength="184" x="103" y="277.52">It's a computer that contains</text><text fill="#000000" font-family="sans-serif" font-size="13" lengthAdjust="spacingAndGlyphs" textLength="235" x="103" y="292.6528">a client server and specific programs</text><text fill="#000000" font-family="sans-serif" font-size="13" lengthAdjust="spacingAndGlyphs" textLength="237" x="103" y="307.7856">that allows users to do specific tasks.</text><text fill="#000000" font-family="sans-serif" font-size="13" lengthAdjust="spacingAndGlyphs" textLength="261" x="103" y="322.9185">Each resource is unique to the institution</text><text fill="#000000" font-family="sans-serif" font-size="13" lengthAdjust="spacingAndGlyphs" textLength="94" x="103" y="338.0513">that is using it.</text><!--MD5=[6b13f1b330d33795af281e5c1dfe1e98]
class Resource--><rect fill="#FEFECE" filter="url(#f1gptkzl7geh03)" height="73.6094" id="Resource" style="stroke: #A80036; stroke-width: 1.5;" width="174" x="205" y="423.4531"/><ellipse cx="258.25" cy="439.4531" fill="#ADD1B2" rx="11" ry="11" style="stroke: #A80036; stroke-width: 1.0;"/><path d="M262.3594,445.4531 L254.6406,445.4531 L254.6406,433.0625 L262.3594,433.0625 L262.3594,435.2188 L257.0938,435.2188 L257.0938,437.8906 L261.8594,437.8906 L261.8594,440.0469 L257.0938,440.0469 L257.0938,443.2969 L262.3594,443.2969 L262.3594,445.4531 Z "/><text fill="#000000" font-family="sans-serif" font-size="12" lengthAdjust="spacingAndGlyphs" textLength="59" x="278.75" y="443.6074">Resource</text><line style="stroke: #A80036; stroke-width: 1.5;" x1="206" x2="378" y1="455.4531" y2="455.4531"/><rect fill="none" height="6" style="stroke: #C82930; stroke-width: 1.0;" width="6" x="213" y="463.4531"/><text fill="#000000" font-family="sans-serif" font-size="11" lengthAdjust="spacingAndGlyphs" textLength="134" x="225" y="469.6636">status: ResourceStatus</text><rect fill="none" height="6" style="stroke: #C82930; stroke-width: 1.0;" width="6" x="213" y="476.2578"/><text fill="#000000" font-family="sans-serif" font-size="11" lengthAdjust="spacingAndGlyphs" textLength="148" x="225" y="482.4683">memoryCapacity: Decimal</text><line style="stroke: #A80036; stroke-width: 1.5;" x1="206" x2="378" y1="489.0625" y2="489.0625"/><!--MD5=[cd69caaef1825c95eef704a1462c9caa]
class Institution--><rect fill="#FEFECE" filter="url(#f1gptkzl7geh03)" height="60.8047" id="Institution" style="stroke: #A80036; stroke-width: 1.5;" width="100" x="165" y="558.4531"/><ellipse cx="182.25" cy="574.4531" fill="#ADD1B2" rx="11" ry="11" style="stroke: #A80036; stroke-width: 1.0;"/><path d="M186.3594,580.4531 L178.6406,580.4531 L178.6406,568.0625 L186.3594,568.0625 L186.3594,570.2188 L181.0938,570.2188 L181.0938,572.8906 L185.8594,572.8906 L185.8594,575.0469 L181.0938,575.0469 L181.0938,578.2969 L186.3594,578.2969 L186.3594,580.4531 Z "/><text fill="#000000" font-family="sans-serif" font-size="12" lengthAdjust="spacingAndGlyphs" textLength="63" x="196.75" y="578.6074">Institution</text><line style="stroke: #A80036; stroke-width: 1.5;" x1="166" x2="264" y1="590.4531" y2="590.4531"/><rect fill="none" height="6" style="stroke: #C82930; stroke-width: 1.0;" width="6" x="173" y="598.4531"/><text fill="#000000" font-family="sans-serif" font-size="11" lengthAdjust="spacingAndGlyphs" textLength="74" x="185" y="604.6636">name: String</text><line style="stroke: #A80036; stroke-width: 1.5;" x1="166" x2="264" y1="611.2578" y2="611.2578"/><!--MD5=[d6181cb537bdc20c0a3007a98a56832d]
class Student--><rect fill="#FEFECE" filter="url(#f1gptkzl7geh03)" height="48" id="Student" style="stroke: #A80036; stroke-width: 1.5;" width="82" x="88" y="436.4531"/><ellipse cx="103" cy="452.4531" fill="#ADD1B2" rx="11" ry="11" style="stroke: #A80036; stroke-width: 1.0;"/><path d="M107.1094,458.4531 L99.3906,458.4531 L99.3906,446.0625 L107.1094,446.0625 L107.1094,448.2188 L101.8438,448.2188 L101.8438,450.8906 L106.6094,450.8906 L106.6094,453.0469 L101.8438,453.0469 L101.8438,456.2969 L107.1094,456.2969 L107.1094,458.4531 Z "/><text fill="#000000" font-family="sans-serif" font-size="12" lengthAdjust="spacingAndGlyphs" textLength="50" x="117" y="456.6074">Student</text><line style="stroke: #A80036; stroke-width: 1.5;" x1="89" x2="169" y1="468.4531" y2="468.4531"/><line style="stroke: #A80036; stroke-width: 1.5;" x1="89" x2="169" y1="476.4531" y2="476.4531"/><!--MD5=[f57e3c3545c2b882d1800c48e744691e]
link Command to Result--><path d="M821.1,327.6631 C820.12,352.9531 818.54,393.7631 817.4,423.2831 " fill="none" id="Command-&gt;Result" style="stroke: #A80036; stroke-width: 1.0;"/><polygon fill="#FFFFFF" points="816.89,436.3431,821.1243,430.5061,817.3649,424.3525,813.1306,430.1895,816.89,436.3431" style="stroke: #A80036; stroke-width: 1.0;"/><!--MD5=[a2aa1bceef3b62173cef91b881caac92]
reverse link Command to Instance--><path d="M785.91,330.5931 C748.06,358.0031 688.68,401.0131 649.07,429.7131 " fill="none" id="Command&lt;-Instance" style="stroke: #A80036; stroke-width: 1.0; stroke-dasharray: 7.0,7.0;"/><polygon fill="#A80036" points="789.96,327.6631,780.3214,329.6873,785.9059,330.5895,785.0037,336.174,789.96,327.6631" style="stroke: #A80036; stroke-width: 1.0;"/><text fill="#000000" font-family="sans-serif" font-size="13" lengthAdjust="spacingAndGlyphs" textLength="46" x="722" y="389.52">receive</text><!--MD5=[07a3f19399a055b487080fef47d3f32b]
reverse link Result to Instance--><path d="M775.07,460.4531 C750.13,460.4531 717.4,460.4531 687.53,460.4531 " fill="none" id="Result&lt;-Instance" style="stroke: #A80036; stroke-width: 1.0; stroke-dasharray: 7.0,7.0;"/><polygon fill="#A80036" points="780.28,460.4531,771.28,456.4531,775.28,460.4531,771.28,464.4531,780.28,460.4531" style="stroke: #A80036; stroke-width: 1.0;"/><text fill="#000000" font-family="sans-serif" font-size="13" lengthAdjust="spacingAndGlyphs" textLength="52" x="708" y="453.52">produce</text><!--MD5=[063d0f0589859a03b294942a6d247735]
reverse link Resource to Instance--><path d="M392.15,460.4531 C437.57,460.4531 482.98,460.4531 528.39,460.4531 " fill="none" id="Resource&lt;-Instance" style="stroke: #A80036; stroke-width: 1.0;"/><polygon fill="#A80036" points="379.02,460.4531,385.02,464.4531,391.02,460.4531,385.02,456.4531,379.02,460.4531" style="stroke: #A80036; stroke-width: 1.0;"/><text fill="#000000" font-family="sans-serif" font-size="13" lengthAdjust="spacingAndGlyphs" textLength="8" x="387.1265" y="456.8754">1</text><text fill="#000000" font-family="sans-serif" font-size="13" lengthAdjust="spacingAndGlyphs" textLength="7" x="513.4686" y="456.8208">*</text><!--MD5=[1e8e8a01203ed0b2b80c77a1918ed77c]
link Instance to Program--><path d="M608,491.1131 C608,509.2131 608,532.4831 608,551.6731 " fill="none" id="Instance-&gt;Program" style="stroke: #A80036; stroke-width: 1.0;"/><polygon fill="#A80036" points="608,564.7931,612,558.7931,608,552.7931,604,558.7931,608,564.7931" style="stroke: #A80036; stroke-width: 1.0;"/><text fill="#000000" font-family="sans-serif" font-size="13" lengthAdjust="spacingAndGlyphs" textLength="7" x="600.3109" y="510.7251">*</text><text fill="#000000" font-family="sans-serif" font-size="13" lengthAdjust="spacingAndGlyphs" textLength="8" x="598.975" y="553.7642">1</text><!--MD5=[e892cd603f6d66b49db3291fd0f8944a]
link Student to Institution--><path d="M144.77,484.6531 C156.69,502.1931 173.36,526.6931 187.46,547.4431 " fill="none" id="Student-&gt;Institution" style="stroke: #A80036; stroke-width: 1.0;"/><polygon fill="#FFFFFF" points="194.77,558.2031,194.7107,550.9923,188.0317,548.2736,188.091,555.4845,194.77,558.2031" style="stroke: #A80036; stroke-width: 1.0;"/><text fill="#000000" font-family="sans-serif" font-size="13" lengthAdjust="spacingAndGlyphs" textLength="7" x="140.7608" y="504.4631">*</text><text fill="#000000" font-family="sans-serif" font-size="13" lengthAdjust="spacingAndGlyphs" textLength="8" x="181.7726" y="547.4148">1</text><!--MD5=[b32e044f665ee6a60a6c706de5850e1c]
link Resource to Institution--><path d="M269.93,497.7031 C260.57,513.0931 249.6,531.1131 239.94,546.9831 " fill="none" id="Resource-&gt;Institution" style="stroke: #A80036; stroke-width: 1.0;"/><polygon fill="#A80036" points="233.17,558.0931,239.7066,555.048,239.4098,547.843,232.8732,550.8881,233.17,558.0931" style="stroke: #A80036; stroke-width: 1.0;"/><text fill="#000000" font-family="sans-serif" font-size="13" lengthAdjust="spacingAndGlyphs" textLength="7" x="258.695" y="517.2251">*</text><text fill="#000000" font-family="sans-serif" font-size="13" lengthAdjust="spacingAndGlyphs" textLength="8" x="228.0926" y="547.2821">1</text><!--MD5=[c01e94f84cf1b8eb84fb49860b6441f0]
link snote to institutional--><text fill="#888888" font-family="sans-serif" font-size="10" lengthAdjust="spacingAndGlyphs" textLength="167" x="400" y="712.2354">drawn with PlantUML v. 1.2020.02</text><!--MD5=[2ff0832cccd426a926eb626bbf91cc64]
@startuml "old_class-diagram"
title Hardware resource management service (HRM or Domain)

package hrm_service {
    note as snote
    This version of the project will not implement
    Access Control on the resources. It wouldn't
    interfere on the domain and wouldn't be assertive
    as it is just an MVP.
    end note

    package computation {
        package events {
            class Command
            class Result
            Command - -o Result
        }
        package execution {
            entity Program {}
            note as n1
                In case of connectivity issues with
                resources or instances, the service
                needs to turn off the use of it.
            end note
            entity Instance {
                - status: InstanceStatus;
            }
        }
        Instance .left.> Command : receive
        Instance .left.> Result : produce
    }
    package institutional {
        note as n2
            It's a computer that contains
            a client server and specific programs
            that allows users to do specific tasks.
            Each resource is unique to the institution
            that is using it.
        end note
        entity Resource {
            - status: ResourceStatus
            - memoryCapacity: Decimal
        }
        entity Institution {
            - name: String
        }
        entity Student {}
    }
}

Resource "1" *-r- "*" Instance
Program "1" *-u- "*" Instance

Student "*" - -o "1" Institution
Institution "1" *-u- "*" Resource

snote -[hidden]-> institutional
n2 -[hidden]-> Resource
n1 -[hidden]-> Instance

footer drawn with PlantUML v. 1.2020.02
@enduml

PlantUML version 1.2020.02(Sun Mar 01 05:22:07 EST 2020)
(GPL source distribution)
Java Runtime: OpenJDK Runtime Environment
JVM: OpenJDK 64-Bit Server VM
Java Version: 17.0.6+10
Operating System: Linux
Default Encoding: UTF-8
Language: en
Country: US
--></g></svg>