<?xml version="1.0" encoding="us-ascii" standalone="no"?><svg xmlns="http://www.w3.org/2000/svg" xmlns:xlink="http://www.w3.org/1999/xlink" contentStyleType="text/css" height="559px" preserveAspectRatio="none" style="width:336px;height:559px;background:#FFFFFF;" version="1.1" viewBox="0 0 336 559" width="336px" zoomAndPan="magnify"><defs/><g><ellipse cx="221" cy="16" fill="#222222" rx="10" ry="10" style="stroke:none;stroke-width:1.0;"/><rect fill="#F1F1F1" height="33.9688" rx="12.5" ry="12.5" style="stroke:#181818;stroke-width:0.5;" width="169" x="136.5" y="67"/><text fill="#000000" font-family="sans-serif" font-size="12" lengthAdjust="spacing" textLength="149" x="146.5" y="88.1387">send command request</text><rect fill="#F1F1F1" height="33.9688" rx="12.5" ry="12.5" style="stroke:#181818;stroke-width:0.5;" width="219" x="111.5" y="142"/><text fill="#000000" font-family="sans-serif" font-size="12" lengthAdjust="spacing" textLength="199" x="121.5" y="163.1387">check if there is free a instance</text><g id="elem_#7"><polygon fill="#F1F1F1" points="144,230,156,242,144,254,132,242,144,230" style="stroke:#181818;stroke-width:0.5;"/></g><rect fill="#F1F1F1" height="33.9688" rx="12.5" ry="12.5" style="stroke:#181818;stroke-width:0.5;" width="198" x="45" y="308"/><text fill="#000000" font-family="sans-serif" font-size="12" lengthAdjust="spacing" textLength="178" x="55" y="329.1387">send command to instances</text><rect fill="#F1F1F1" height="33.9688" rx="12.5" ry="12.5" style="stroke:#181818;stroke-width:0.5;" width="135" x="76.5" y="383"/><text fill="#000000" font-family="sans-serif" font-size="12" lengthAdjust="spacing" textLength="115" x="86.5" y="404.1387">execute command</text><rect fill="#F1F1F1" height="33.9688" rx="12.5" ry="12.5" style="stroke:#181818;stroke-width:0.5;" width="274" x="7" y="458"/><text fill="#000000" font-family="sans-serif" font-size="12" lengthAdjust="spacing" textLength="254" x="17" y="479.1387">stream the command output to a log file</text><ellipse cx="144" cy="543" fill="none" rx="10" ry="10" style="stroke:#222222;stroke-width:1.0;"/><ellipse cx="144.5" cy="543.5" fill="#222222" rx="6" ry="6" style="stroke:none;stroke-width:1.0;"/><rect fill="#F1F1F1" height="33.9688" rx="12.5" ry="12.5" style="stroke:#181818;stroke-width:0.5;" width="45" x="46.5" y="142"/><text fill="#000000" font-family="sans-serif" font-size="12" lengthAdjust="spacing" textLength="25" x="56.5" y="163.1387">wait</text><!--link start to send command request--><g id="link_start_send command request"><path d="M221,26.18 C221,35.27 221,49.53 221,61.49 " fill="none" id="start-to-send command request" style="stroke:#181818;stroke-width:1.0;"/><polygon fill="#181818" points="221,66.79,225,57.79,221,61.79,217,57.79,221,66.79" style="stroke:#181818;stroke-width:1.0;"/></g><!--link send command request to check if there is free a instance--><g id="link_send command request_check if there is free a instance"><path d="M221,101.2 C221,111.69 221,125.46 221,136.82 " fill="none" id="send command request-to-check if there is free a instance" style="stroke:#181818;stroke-width:1.0;"/><polygon fill="#181818" points="221,141.84,225,132.84,221,136.84,217,132.84,221,141.84" style="stroke:#181818;stroke-width:1.0;"/></g><!--link check if there is free a instance to #7--><g id="link_check if there is free a instance_#7"><path d="M205.79,176 C190.06,192.55 166.02,217.83 153.05,231.48 " fill="none" id="check if there is free a instance-to-#7" style="stroke:#181818;stroke-width:1.0;"/><polygon fill="#181818" points="149.4,235.31,158.5042,231.5532,152.849,231.69,152.7122,226.0348,149.4,235.31" style="stroke:#181818;stroke-width:1.0;"/><text fill="#000000" font-family="sans-serif" font-size="11" lengthAdjust="spacing" textLength="136" x="163.8506" y="231.1013">is there free instances?</text></g><!--link #7 to send command to instances--><g id="link_#7_send command to instances"><path d="M144,254.26 C144,266.76 144,287.21 144,302.74 " fill="none" id="#7-to-send command to instances" style="stroke:#181818;stroke-width:1.0;"/><polygon fill="#181818" points="144,307.8,148,298.8,144,302.8,140,298.8,144,307.8" style="stroke:#181818;stroke-width:1.0;"/><text fill="#000000" font-family="sans-serif" font-size="11" lengthAdjust="spacing" textLength="23" x="145" y="285.2104">true</text></g><!--link send command to instances to execute command--><g id="link_send command to instances_execute command"><path d="M144,342.2 C144,352.69 144,366.46 144,377.82 " fill="none" id="send command to instances-to-execute command" style="stroke:#181818;stroke-width:1.0;"/><polygon fill="#181818" points="144,382.84,148,373.84,144,377.84,140,373.84,144,382.84" style="stroke:#181818;stroke-width:1.0;"/></g><!--link execute command to stream the command output to a log file--><g id="link_execute command_stream the command output to a log file"><path d="M144,417.2 C144,427.69 144,441.46 144,452.82 " fill="none" id="execute command-to-stream the command output to a log file" style="stroke:#181818;stroke-width:1.0;"/><polygon fill="#181818" points="144,457.84,148,448.84,144,452.84,140,448.84,144,457.84" style="stroke:#181818;stroke-width:1.0;"/></g><!--link stream the command output to a log file to end--><g id="link_stream the command output to a log file_end"><path d="M144,492.31 C144,503.24 144,517.47 144,527.9 " fill="none" id="stream the command output to a log file-to-end" style="stroke:#181818;stroke-width:1.0;"/><polygon fill="#181818" points="144,532.97,148,523.97,144,527.97,140,523.97,144,532.97" style="stroke:#181818;stroke-width:1.0;"/></g><!--link #7 to wait--><g id="link_#7_wait"><path d="M138.39,234.94 C127.74,223.44 104.19,198 87.48,179.96 " fill="none" id="#7-to-wait" style="stroke:#181818;stroke-width:1.0;"/><polygon fill="#181818" points="83.82,176,87.0004,185.3212,87.2173,179.6685,92.87,179.8855,83.82,176" style="stroke:#181818;stroke-width:1.0;"/><text fill="#000000" font-family="sans-serif" font-size="11" lengthAdjust="spacing" textLength="28" x="114" y="207.2104">false</text></g><!--link wait to check if there is free a instance--><g id="link_wait_check if there is free a instance"><path d="M91.56,159 C96.39,159 101.22,159 106.04,159 " fill="none" id="wait-to-check if there is free a instance" style="stroke:#181818;stroke-width:1.0;"/><polygon fill="#181818" points="111.28,159,102.28,155,106.28,159,102.28,163,111.28,159" style="stroke:#181818;stroke-width:1.0;"/></g><!--SRC=[ZOz13i8W44Ntd6B2gctIA-X1Z0k27qjiGM68FRv3jQrn9Pi9y_xy-TDqBVNzWNH6k92DqsIa9ZmACckr83l0tiWxuW49v3Ev190X7pAROA6LG2tzjs2XAyj7NTj1aRngT-9KSFvPo74Vq9jKOuOjZ5NsHJ8dcAawRnwnyBrmjJ8qnYivFsAVQBfMOSpOSpWZNmdoD9u_kl-EbU3UlG00]--></g></svg>