<?xml version="1.0" encoding="us-ascii" standalone="no"?><svg xmlns="http://www.w3.org/2000/svg" xmlns:xlink="http://www.w3.org/1999/xlink" contentStyleType="text/css" height="675px" preserveAspectRatio="none" style="width:986px;height:675px;background:#FFFFFF;" version="1.1" viewBox="0 0 986 675" width="986px" zoomAndPan="magnify"><defs/><g><text fill="#000000" font-family="sans-serif" font-size="14" font-weight="bold" lengthAdjust="spacing" textLength="466" x="253" y="22.9951">Hardware resource management service (HRM or Domain)</text><!--cluster hrm_service--><g id="cluster_hrm_service"><path d="M8.5,43.2969 L105.5,43.2969 A3.75,3.75 0 0 1 108,45.7969 L115,65.5938 L976.5,65.5938 A2.5,2.5 0 0 1 979,68.0938 L979,665.7969 A2.5,2.5 0 0 1 976.5,668.2969 L8.5,668.2969 A2.5,2.5 0 0 1 6,665.7969 L6,45.7969 A2.5,2.5 0 0 1 8.5,43.2969 " fill="none" style="stroke:#000000;stroke-width:1.5;"/><line style="stroke:#000000;stroke-width:1.5;" x1="6" x2="115" y1="65.5938" y2="65.5938"/><text fill="#000000" font-family="sans-serif" font-size="14" font-weight="bold" lengthAdjust="spacing" textLength="96" x="10" y="58.292">hrm_service</text></g><!--cluster computation--><g id="cluster_computation"><path d="M467.5,196.2969 L569.5,196.2969 A3.75,3.75 0 0 1 572,198.7969 L579,218.5938 L952.5,218.5938 A2.5,2.5 0 0 1 955,221.0938 L955,641.7969 A2.5,2.5 0 0 1 952.5,644.2969 L467.5,644.2969 A2.5,2.5 0 0 1 465,641.7969 L465,198.7969 A2.5,2.5 0 0 1 467.5,196.2969 " fill="none" style="stroke:#000000;stroke-width:1.5;"/><line style="stroke:#000000;stroke-width:1.5;" x1="465" x2="579" y1="218.5938" y2="218.5938"/><text fill="#000000" font-family="sans-serif" font-size="14" font-weight="bold" lengthAdjust="spacing" textLength="101" x="469" y="211.292">computation</text></g><!--cluster events--><g id="cluster_events"><path d="M795.5,242.7969 L850.5,242.7969 A3.75,3.75 0 0 1 853,245.2969 L860,265.0938 L928.5,265.0938 A2.5,2.5 0 0 1 931,267.5938 L931,484.2969 A2.5,2.5 0 0 1 928.5,486.7969 L795.5,486.7969 A2.5,2.5 0 0 1 793,484.2969 L793,245.2969 A2.5,2.5 0 0 1 795.5,242.7969 " fill="none" style="stroke:#000000;stroke-width:1.5;"/><line style="stroke:#000000;stroke-width:1.5;" x1="793" x2="860" y1="265.0938" y2="265.0938"/><text fill="#000000" font-family="sans-serif" font-size="14" font-weight="bold" lengthAdjust="spacing" textLength="54" x="797" y="257.792">events</text></g><!--cluster execution--><g id="cluster_execution"><path d="M491.5,239.2969 L571.5,239.2969 A3.75,3.75 0 0 1 574,241.7969 L581,261.5938 L766.5,261.5938 A2.5,2.5 0 0 1 769,264.0938 L769,617.7969 A2.5,2.5 0 0 1 766.5,620.2969 L491.5,620.2969 A2.5,2.5 0 0 1 489,617.7969 L489,241.7969 A2.5,2.5 0 0 1 491.5,239.2969 " fill="none" style="stroke:#000000;stroke-width:1.5;"/><line style="stroke:#000000;stroke-width:1.5;" x1="489" x2="581" y1="261.5938" y2="261.5938"/><text fill="#000000" font-family="sans-serif" font-size="14" font-weight="bold" lengthAdjust="spacing" textLength="79" x="493" y="254.292">execution</text></g><!--cluster institutional--><g id="cluster_institutional"><path d="M40.5,231.2969 L139.5,231.2969 A3.75,3.75 0 0 1 142,233.7969 L149,253.5938 L430.5,253.5938 A2.5,2.5 0 0 1 433,256.0938 L433,633.7969 A2.5,2.5 0 0 1 430.5,636.2969 L40.5,636.2969 A2.5,2.5 0 0 1 38,633.7969 L38,233.7969 A2.5,2.5 0 0 1 40.5,231.2969 " fill="none" style="stroke:#000000;stroke-width:1.5;"/><line style="stroke:#000000;stroke-width:1.5;" x1="38" x2="149" y1="253.5938" y2="253.5938"/><text fill="#000000" font-family="sans-serif" font-size="14" font-weight="bold" lengthAdjust="spacing" textLength="98" x="42" y="246.292">institutional</text></g><g id="elem_snote"><path d="M22.5,78.2969 L22.5,148.8281 L373.5,148.8281 L373.5,88.2969 L363.5,78.2969 L22.5,78.2969 " fill="#FEFFDD" style="stroke:#181818;stroke-width:0.5;"/><path d="M363.5,78.2969 L363.5,88.2969 L373.5,88.2969 L363.5,78.2969 " fill="#FEFFDD" style="stroke:#181818;stroke-width:1.0;"/><text fill="#000000" font-family="sans-serif" font-size="13" lengthAdjust="spacing" textLength="297" x="28.5" y="95.3638">This version of the project will not implement</text><text fill="#000000" font-family="sans-serif" font-size="13" lengthAdjust="spacing" textLength="285" x="28.5" y="110.4966">Access Control on the resources. It wouldn't</text><text fill="#000000" font-family="sans-serif" font-size="13" lengthAdjust="spacing" textLength="326" x="28.5" y="125.6294">interfere on the domain and wouldn't be assertive</text><text fill="#000000" font-family="sans-serif" font-size="13" lengthAdjust="spacing" textLength="127" x="28.5" y="140.7622">as it is just an MVP.</text></g><!--class Command--><g id="elem_Command"><rect codeLine="13" fill="#F1F1F1" height="48" id="Command" rx="2.5" ry="2.5" style="stroke:#181818;stroke-width:0.5;" width="106" x="809" y="277.7969"/><ellipse cx="824" cy="293.7969" fill="#ADD1B2" rx="11" ry="11" style="stroke:#181818;stroke-width:1.0;"/><path d="M826.9688,299.4375 Q826.3906,299.7344 825.75,299.875 Q825.1094,300.0313 824.4063,300.0313 Q821.9063,300.0313 820.5781,298.3906 Q819.2656,296.7344 819.2656,293.6094 Q819.2656,290.4844 820.5781,288.8281 Q821.9063,287.1719 824.4063,287.1719 Q825.1094,287.1719 825.75,287.3281 Q826.4063,287.4844 826.9688,287.7813 L826.9688,290.5 Q826.3438,289.9219 825.75,289.6563 Q825.1563,289.375 824.5313,289.375 Q823.1875,289.375 822.5,290.4531 Q821.8125,291.5156 821.8125,293.6094 Q821.8125,295.7031 822.5,296.7813 Q823.1875,297.8438 824.5313,297.8438 Q825.1563,297.8438 825.75,297.5781 Q826.3438,297.2969 826.9688,296.7188 L826.9688,299.4375 Z " fill="#000000"/><text fill="#000000" font-family="sans-serif" font-size="14" lengthAdjust="spacing" textLength="74" x="838" y="298.6436">Command</text><line style="stroke:#181818;stroke-width:0.5;" x1="810" x2="914" y1="309.7969" y2="309.7969"/><line style="stroke:#181818;stroke-width:0.5;" x1="810" x2="914" y1="317.7969" y2="317.7969"/></g><!--class Result--><g id="elem_Result"><rect codeLine="14" fill="#F1F1F1" height="48" id="Result" rx="2.5" ry="2.5" style="stroke:#181818;stroke-width:0.5;" width="76" x="821" y="422.7969"/><ellipse cx="836" cy="438.7969" fill="#ADD1B2" rx="11" ry="11" style="stroke:#181818;stroke-width:1.0;"/><path d="M838.9688,444.4375 Q838.3906,444.7344 837.75,444.875 Q837.1094,445.0313 836.4063,445.0313 Q833.9063,445.0313 832.5781,443.3906 Q831.2656,441.7344 831.2656,438.6094 Q831.2656,435.4844 832.5781,433.8281 Q833.9063,432.1719 836.4063,432.1719 Q837.1094,432.1719 837.75,432.3281 Q838.4063,432.4844 838.9688,432.7813 L838.9688,435.5 Q838.3438,434.9219 837.75,434.6563 Q837.1563,434.375 836.5313,434.375 Q835.1875,434.375 834.5,435.4531 Q833.8125,436.5156 833.8125,438.6094 Q833.8125,440.7031 834.5,441.7813 Q835.1875,442.8438 836.5313,442.8438 Q837.1563,442.8438 837.75,442.5781 Q838.3438,442.2969 838.9688,441.7188 L838.9688,444.4375 Z " fill="#000000"/><text fill="#000000" font-family="sans-serif" font-size="14" lengthAdjust="spacing" textLength="44" x="850" y="443.6436">Result</text><line style="stroke:#181818;stroke-width:0.5;" x1="822" x2="896" y1="454.7969" y2="454.7969"/><line style="stroke:#181818;stroke-width:0.5;" x1="822" x2="896" y1="462.7969" y2="462.7969"/></g><!--class Program--><g id="elem_Program"><rect codeLine="18" fill="#F1F1F1" height="48" id="Program" rx="2.5" ry="2.5" style="stroke:#181818;stroke-width:0.5;" width="93" x="586.5" y="556.2969"/><ellipse cx="601.5" cy="572.2969" fill="#ADD1B2" rx="11" ry="11" style="stroke:#181818;stroke-width:1.0;"/><path d="M605.6094,578.2969 L597.8906,578.2969 L597.8906,565.9063 L605.6094,565.9063 L605.6094,568.0625 L600.3438,568.0625 L600.3438,570.7344 L605.1094,570.7344 L605.1094,572.8906 L600.3438,572.8906 L600.3438,576.1406 L605.6094,576.1406 L605.6094,578.2969 Z " fill="#000000"/><text fill="#000000" font-family="sans-serif" font-size="14" lengthAdjust="spacing" textLength="61" x="615.5" y="577.1436">Program</text><line style="stroke:#181818;stroke-width:0.5;" x1="587.5" x2="678.5" y1="588.2969" y2="588.2969"/><line style="stroke:#181818;stroke-width:0.5;" x1="587.5" x2="678.5" y1="596.2969" y2="596.2969"/></g><g id="elem_n1"><path d="M505.5,274.2969 L505.5,329.6953 A0,0 0 0 0 505.5,329.6953 L625.74,329.6953 L632.13,414.6469 L633.74,329.6953 L752.5,329.6953 A0,0 0 0 0 752.5,329.6953 L752.5,284.2969 L742.5,274.2969 L505.5,274.2969 A0,0 0 0 0 505.5,274.2969 " fill="#FEFFDD" style="stroke:#181818;stroke-width:0.5;"/><path d="M742.5,274.2969 L742.5,284.2969 L752.5,284.2969 L742.5,274.2969 " fill="#FEFFDD" style="stroke:#181818;stroke-width:0.5;"/><text fill="#000000" font-family="sans-serif" font-size="13" lengthAdjust="spacing" textLength="224" x="511.5" y="291.3638">In case of connectivity issues with</text><text fill="#000000" font-family="sans-serif" font-size="13" lengthAdjust="spacing" textLength="226" x="511.5" y="306.4966">resources or instances, the service</text><text fill="#000000" font-family="sans-serif" font-size="13" lengthAdjust="spacing" textLength="194" x="511.5" y="321.6294">needs to turn off the use of it.</text></g><!--class Instance--><g id="elem_Instance"><rect codeLine="24" fill="#F1F1F1" height="64.2969" id="Instance" rx="2.5" ry="2.5" style="stroke:#181818;stroke-width:0.5;" width="186" x="540" y="414.7969"/><ellipse cx="598.75" cy="430.7969" fill="#ADD1B2" rx="11" ry="11" style="stroke:#181818;stroke-width:1.0;"/><path d="M602.8594,436.7969 L595.1406,436.7969 L595.1406,424.4063 L602.8594,424.4063 L602.8594,426.5625 L597.5938,426.5625 L597.5938,429.2344 L602.3594,429.2344 L602.3594,431.3906 L597.5938,431.3906 L597.5938,434.6406 L602.8594,434.6406 L602.8594,436.7969 Z " fill="#000000"/><text fill="#000000" font-family="sans-serif" font-size="14" lengthAdjust="spacing" textLength="60" x="619.25" y="435.6436">Instance</text><line style="stroke:#181818;stroke-width:0.5;" x1="541" x2="725" y1="446.7969" y2="446.7969"/><rect fill="none" height="6" style="stroke:#C82930;stroke-width:1.0;" width="6" x="548" y="457.4453"/><text fill="#000000" font-family="sans-serif" font-size="14" lengthAdjust="spacing" textLength="160" x="560" y="463.792">status: InstanceStatus;</text><line style="stroke:#181818;stroke-width:0.5;" x1="541" x2="725" y1="471.0938" y2="471.0938"/></g><g id="elem_n2"><path d="M147,274.2969 L147,329.6953 A0,0 0 0 0 147,329.6953 L278.27,329.6953 L294.62,406.1469 L286.27,329.6953 L409,329.6953 A0,0 0 0 0 409,329.6953 L409,284.2969 L399,274.2969 L147,274.2969 A0,0 0 0 0 147,274.2969 " fill="#FEFFDD" style="stroke:#181818;stroke-width:0.5;"/><path d="M399,274.2969 L399,284.2969 L409,284.2969 L399,274.2969 " fill="#FEFFDD" style="stroke:#181818;stroke-width:0.5;"/><text fill="#000000" font-family="sans-serif" font-size="13" lengthAdjust="spacing" textLength="190" x="153" y="291.3638">It&#180;s a computer that contains</text><text fill="#000000" font-family="sans-serif" font-size="13" lengthAdjust="spacing" textLength="241" x="153" y="306.4966">a client server and specific programs</text><text fill="#000000" font-family="sans-serif" font-size="13" lengthAdjust="spacing" textLength="241" x="153" y="321.6294">that allows users to do specific tasks</text></g><!--class Resource--><g id="elem_Resource"><rect codeLine="37" fill="#F1F1F1" height="80.5938" id="Resource" rx="2.5" ry="2.5" style="stroke:#181818;stroke-width:0.5;" width="216" x="193" y="406.2969"/><ellipse cx="263.25" cy="422.2969" fill="#ADD1B2" rx="11" ry="11" style="stroke:#181818;stroke-width:1.0;"/><path d="M267.3594,428.2969 L259.6406,428.2969 L259.6406,415.9063 L267.3594,415.9063 L267.3594,418.0625 L262.0938,418.0625 L262.0938,420.7344 L266.8594,420.7344 L266.8594,422.8906 L262.0938,422.8906 L262.0938,426.1406 L267.3594,426.1406 L267.3594,428.2969 Z " fill="#000000"/><text fill="#000000" font-family="sans-serif" font-size="14" lengthAdjust="spacing" textLength="67" x="283.75" y="427.1436">Resource</text><line style="stroke:#181818;stroke-width:0.5;" x1="194" x2="408" y1="438.2969" y2="438.2969"/><rect fill="none" height="6" style="stroke:#C82930;stroke-width:1.0;" width="6" x="201" y="448.9453"/><text fill="#000000" font-family="sans-serif" font-size="14" lengthAdjust="spacing" textLength="162" x="213" y="455.292">status: ResourceStatus</text><rect fill="none" height="6" style="stroke:#C82930;stroke-width:1.0;" width="6" x="201" y="465.2422"/><text fill="#000000" font-family="sans-serif" font-size="14" lengthAdjust="spacing" textLength="190" x="213" y="471.5889">memoryCapacity: Decimal</text><line style="stroke:#181818;stroke-width:0.5;" x1="194" x2="408" y1="478.8906" y2="478.8906"/></g><!--class Institution--><g id="elem_Institution"><rect codeLine="41" fill="#F1F1F1" height="64.2969" id="Institution" rx="2.5" ry="2.5" style="stroke:#181818;stroke-width:0.5;" width="118" x="156" y="548.2969"/><ellipse cx="178.2" cy="564.2969" fill="#ADD1B2" rx="11" ry="11" style="stroke:#181818;stroke-width:1.0;"/><path d="M182.3094,570.2969 L174.5906,570.2969 L174.5906,557.9063 L182.3094,557.9063 L182.3094,560.0625 L177.0438,560.0625 L177.0438,562.7344 L181.8094,562.7344 L181.8094,564.8906 L177.0438,564.8906 L177.0438,568.1406 L182.3094,568.1406 L182.3094,570.2969 Z " fill="#000000"/><text fill="#000000" font-family="sans-serif" font-size="14" lengthAdjust="spacing" textLength="70" x="193.8" y="569.1436">Institution</text><line style="stroke:#181818;stroke-width:0.5;" x1="157" x2="273" y1="580.2969" y2="580.2969"/><rect fill="none" height="6" style="stroke:#C82930;stroke-width:1.0;" width="6" x="164" y="590.9453"/><text fill="#000000" font-family="sans-serif" font-size="14" lengthAdjust="spacing" textLength="92" x="176" y="597.292">name: String</text><line style="stroke:#181818;stroke-width:0.5;" x1="157" x2="273" y1="604.5938" y2="604.5938"/></g><!--class Student--><g id="elem_Student"><rect codeLine="44" fill="#F1F1F1" height="48" id="Student" rx="2.5" ry="2.5" style="stroke:#181818;stroke-width:0.5;" width="87" x="70.5" y="422.7969"/><ellipse cx="85.5" cy="438.7969" fill="#ADD1B2" rx="11" ry="11" style="stroke:#181818;stroke-width:1.0;"/><path d="M89.6094,444.7969 L81.8906,444.7969 L81.8906,432.4063 L89.6094,432.4063 L89.6094,434.5625 L84.3438,434.5625 L84.3438,437.2344 L89.1094,437.2344 L89.1094,439.3906 L84.3438,439.3906 L84.3438,442.6406 L89.6094,442.6406 L89.6094,444.7969 Z " fill="#000000"/><text fill="#000000" font-family="sans-serif" font-size="14" lengthAdjust="spacing" textLength="55" x="99.5" y="443.6436">Student</text><line style="stroke:#181818;stroke-width:0.5;" x1="71.5" x2="156.5" y1="454.7969" y2="454.7969"/><line style="stroke:#181818;stroke-width:0.5;" x1="71.5" x2="156.5" y1="462.7969" y2="462.7969"/></g><!--link Command to Result--><g id="link_Command_Result"><path codeLine="15" d="M861.51,326.0869 C861.04,348.6269 860.31,383.1369 859.77,409.3169 " fill="none" id="Command-to-Result" style="stroke:#181818;stroke-width:1.0;"/><polygon fill="none" points="859.49,422.5169,863.6144,416.6017,859.7405,410.5195,855.6161,416.4347,859.49,422.5169" style="stroke:#181818;stroke-width:1.0;"/></g><!--reverse link Command to Instance--><g id="link_Command_Instance"><path codeLine="28" d="M820.33,328.8169 C781.63,352.9869 723.95,389.0069 682.82,414.6869 " fill="none" id="Command-backto-Instance" style="stroke:#181818;stroke-width:1.0;stroke-dasharray:7.0,7.0;"/><polygon fill="#181818" points="824.95,325.9269,815.1993,327.3137,820.7124,328.5807,819.4454,334.0939,824.95,325.9269" style="stroke:#181818;stroke-width:1.0;"/><text fill="#000000" font-family="sans-serif" font-size="13" lengthAdjust="spacing" textLength="48" x="769" y="372.3638">receive</text></g><!--reverse link Result to Instance--><g id="link_Result_Instance"><path codeLine="29" d="M815.62,446.7969 C790.26,446.7969 757.22,446.7969 726.23,446.7969 " fill="none" id="Result-backto-Instance" style="stroke:#181818;stroke-width:1.0;stroke-dasharray:7.0,7.0;"/><polygon fill="#181818" points="820.92,446.7969,811.92,442.7969,815.92,446.7969,811.92,450.7969,820.92,446.7969" style="stroke:#181818;stroke-width:1.0;"/><text fill="#000000" font-family="sans-serif" font-size="13" lengthAdjust="spacing" textLength="52" x="747.5" y="439.8638">produce</text></g><!--reverse link Resource to Instance--><g id="link_Resource_Instance"><path codeLine="48" d="M422.3,446.7969 C461.51,446.7969 500.72,446.7969 539.93,446.7969 " fill="none" id="Resource-backto-Instance" style="stroke:#181818;stroke-width:1.0;"/><polygon fill="#181818" points="409.29,446.7969,415.29,450.7969,421.29,446.7969,415.29,442.7969,409.29,446.7969" style="stroke:#181818;stroke-width:1.0;"/><text fill="#000000" font-family="sans-serif" font-size="13" lengthAdjust="spacing" textLength="8" x="416.8345" y="443.378">1</text><text fill="#000000" font-family="sans-serif" font-size="13" lengthAdjust="spacing" textLength="7" x="524.9328" y="443.2359">*</text></g><!--link Instance to Program--><g id="link_Instance_Program"><path codeLine="49" d="M633,478.9569 C633,498.2169 633,522.9969 633,543.1169 " fill="none" id="Instance-to-Program" style="stroke:#181818;stroke-width:1.0;"/><polygon fill="#181818" points="633,556.1769,637,550.1769,633,544.1769,629,550.1769,633,556.1769" style="stroke:#181818;stroke-width:1.0;"/><text fill="#000000" font-family="sans-serif" font-size="13" lengthAdjust="spacing" textLength="7" x="625.2781" y="499.1867">*</text><text fill="#000000" font-family="sans-serif" font-size="13" lengthAdjust="spacing" textLength="8" x="623.975" y="545.1582">1</text></g><!--link Student to Institution--><g id="link_Student_Institution"><path codeLine="51" d="M131.82,471.0069 C145.94,489.3769 166.02,515.5269 182.91,537.5169 " fill="none" id="Student-to-Institution" style="stroke:#181818;stroke-width:1.0;"/><polygon fill="none" points="190.91,547.9369,190.4309,540.7417,183.6049,538.4166,184.084,545.6117,190.91,547.9369" style="stroke:#181818;stroke-width:1.0;"/><text fill="#000000" font-family="sans-serif" font-size="13" lengthAdjust="spacing" textLength="7" x="128.3105" y="490.8193">*</text><text fill="#000000" font-family="sans-serif" font-size="13" lengthAdjust="spacing" textLength="8" x="177.3798" y="537.1402">1</text></g><!--link Resource to Institution--><g id="link_Resource_Institution"><path codeLine="52" d="M274.96,487.6069 C264.78,503.1769 253.08,521.0669 242.74,536.8769 " fill="none" id="Resource-to-Institution" style="stroke:#181818;stroke-width:1.0;"/><polygon fill="#181818" points="235.49,547.9669,242.1225,545.1366,242.0609,537.9258,235.4284,540.756,235.49,547.9669" style="stroke:#181818;stroke-width:1.0;"/><text fill="#000000" font-family="sans-serif" font-size="13" lengthAdjust="spacing" textLength="7" x="263.6213" y="506.8089">*</text><text fill="#000000" font-family="sans-serif" font-size="13" lengthAdjust="spacing" textLength="8" x="230.7365" y="537.1761">1</text></g><!--link snote to institutional--><!--SRC=[TLJBRXin3BplLn2-j0sw1fAZ2mGeaaDy2134HIz5KQXQEbQYbGoHiXi4_gj-GR-ibFPXotPqyeepv913cGrRXCcT2irM1OI0v6FG2ArowWbRT0o4OMFawkFTuptu0BU-LSPzcbJLMkaNGS4gjBy6r5i5Sfnd14L0wKU- -ROo11iCPBm3lmHU8Qo3VqRDi3NM9WgOTcsxefdpLMiaWXllE7WBGaoiGIDDOIvS7stZFlGCunZ34gMJ7jnaiQ1SiqV-Jj94BviDTZHHQgGwmNCa5Z3SVt-OvWWACVUGluQ6jM_NaHMdNhg63wEuaGxe892EjYgtqifacpEHHwHekGZqOAXhVnpUdHRzWpeU2UeQOCEly13yKr0jlEsAwE2Jkookqvaxq8emUQMzS-AJsQHCXYWYYMUyEk6CrgGzCOvOEVdud9te5-I4un0R0lR0CQJDw5OZTfKDJu-wwUquq-AyhtSqW7Hga117cesWHVx-KY1tPyOx9frQNFBqUZHb9irgb0rw7zfv9aZPyoRshU-AHKepCfnzK_P0-EZBLQ5mpl_-4gX-_p38g1GdUrYMd0geWAmPdgyWasPQepPBevEWj0qb8-TIrlejfV67R4hZzonMzBAdd5ZHs_0u_8MKDkmj602T1KUW5biVNc-K34YIpU1MQhVAdd7cmFL-WYSLdMfn1WiEnZszds71iKc3wf_6hjfLrTZ4v7825tMeON8n6HskXjVKHUDHj1eofjlqU1FiG6TrgBb8CPIjglp72VMFbMaarS_wkboLobqLmP7eBelxGTD_]--></g></svg>